# xmcd
#
# Track frame offsets:
#	150
#	24543
#	43006
#	50793
#	130674
#	138234
#	180213
#	203345
#	226097
#	240257
#
# Disc length: 3426 seconds
#
# Revision: 1
# Processed by: cddbd v1.5.2PL0 Copyright (c) Steve Scherf et al.
# Submitted via: audiograbber 1.83.01
#
DISCID=720d600a
DTITLE=Grateful Dead - 73-06-29 Universal Amphitheatre, Universal City CA
DYEAR=1900
DGENRE=
TTITLE0=Jack Straw
TTITLE1=Deal
TTITLE2=Tuning
TTITLE3=Playing In The Band
TTITLE4=Tuning
TTITLE5=Mississippi Half-Step
TTITLE6=El Paso
TTITLE7=Brown Eyed Women
TTITLE8=Equipment break and Banter
TTITLE9=Promised Land
EXTD=
EXTT0=
EXTT1=
EXTT2=
EXTT3=
EXTT4=
EXTT5=
EXTT6=
EXTT7=
EXTT8=
EXTT9=
PLAYORDER=
